<svg xmlns="http://www.w3.org/2000/svg" width="118" height="118" viewBox="0 0 118 118"><defs><style>.a{fill:rgba(0,0,0,0);}.b{fill:none;stroke:#a65858;stroke-width:5px;}</style></defs><path class="a" d="M0,118H118V0H0Z"/><path class="b" d="M1,1H20.7V60.216H1ZM109.347,55.281A9.888,9.888,0,0,1,99.5,65.15H68.421L73.1,87.7l.148,1.579a7.436,7.436,0,0,1-2.167,5.231l-5.22,5.181L33.455,67.174a9.658,9.658,0,0,1-2.906-6.958V10.869A9.889,9.889,0,0,1,40.4,1H84.722a9.783,9.783,0,0,1,9.062,6.02L108.657,41.81a9.766,9.766,0,0,1,.689,3.6Z" transform="translate(3.827 13.48)"/></svg>