<svg xmlns="http://www.w3.org/2000/svg" width="118" height="118" viewBox="0 0 118 118"><defs><style>.a{fill:rgba(0,0,0,0);}.b{fill:none;stroke:#a65858;stroke-width:5px;}</style></defs><path class="a" d="M118,0H0V118H118Z"/><path class="b" d="M109.242,99.483H89.561V40.393h19.68ZM1,45.317a9.873,9.873,0,0,1,9.84-9.848H41.886l-4.674-22.5-.148-1.576a7.415,7.415,0,0,1,2.165-5.22L44.444,1,76.818,33.45a9.632,9.632,0,0,1,2.9,6.943V89.635a9.873,9.873,0,0,1-9.84,9.848H25.6a9.774,9.774,0,0,1-9.053-6.007L1.689,58.76A9.736,9.736,0,0,1,1,55.166Z" transform="translate(3.879 3.879)"/></svg>