<svg xmlns="http://www.w3.org/2000/svg" width="111.745" height="111.745" viewBox="0 0 111.745 111.745">
  <g id="Grupo_1" data-name="Grupo 1" transform="translate(-748.091 -213.091)">
    <g id="photo-24px" transform="translate(748.091 213.091)">
      <path id="Trazado_2" data-name="Trazado 2" d="M0,0H111.745V111.745H0Z" fill="none"/>
      <path id="Trazado_3" data-name="Trazado 3" d="M86.809,77.5V12.312A9.339,9.339,0,0,0,77.5,3H12.312A9.339,9.339,0,0,0,3,12.312V77.5a9.339,9.339,0,0,0,9.312,9.312H77.5A9.339,9.339,0,0,0,86.809,77.5Zm-58.2-25.608L40.248,65.9l16.3-21L77.5,72.841H12.312Z" transform="translate(10.968 10.968)" fill="#fff" stroke="#707070" stroke-width="1"/>
    </g>
    <g id="emoji_objects-24px" transform="translate(778.243 225.807)">
      <g id="Bounding_Box" transform="translate(0 0)">
        <rect id="Rectángulo_2" data-name="Rectángulo 2" width="50" height="48" transform="translate(-0.243 0.193)" fill="none"/>
      </g>
      <g id="Master" transform="translate(10.027 5.859)">
        <path id="Trazado_1" data-name="Trazado 1" d="M19.259,3a13.677,13.677,0,0,0-2.851.285,14.237,14.237,0,0,0-6.639,24.6,3.96,3.96,0,0,1,1.344,2.994v4.7a4.085,4.085,0,0,0,4.073,4.073h.57a4.031,4.031,0,0,0,7.005,0h.57A4.085,4.085,0,0,0,27.4,35.583v-4.7a3.95,3.95,0,0,1,1.3-2.973A14.24,14.24,0,0,0,19.259,3Zm4.073,32.583H15.186V33.547h8.146Zm0-4.073H15.186V29.474h8.146ZM20.277,20.127V25.4H18.24V20.127L14.514,16.42l1.446-1.446,3.3,3.3,3.3-3.3L24,16.42Z" transform="translate(-4.997 -3)" fill="#ef767a" stroke="#707070" stroke-width="1"/>
      </g>
    </g>
  </g>
</svg>
