<svg xmlns="http://www.w3.org/2000/svg" width="118" height="118" viewBox="0 0 118 118"><defs><style>.a{fill:rgba(0,0,0,0);}.b{fill:none;stroke:#6158a6;stroke-width:5px;}</style></defs><path class="a" d="M0,0H118V118H0Z"/><path class="b" d="M1,99.483H20.68V40.393H1ZM109.242,45.317a9.873,9.873,0,0,0-9.84-9.848H68.356l4.674-22.5.148-1.576a7.415,7.415,0,0,0-2.165-5.22L65.8,1,33.423,33.45a9.632,9.632,0,0,0-2.9,6.943V89.635a9.873,9.873,0,0,0,9.84,9.848H84.641a9.774,9.774,0,0,0,9.053-6.007L108.553,58.76a9.736,9.736,0,0,0,.689-3.595Z" transform="translate(3.879 3.879)"/></svg>