<svg xmlns="http://www.w3.org/2000/svg" width="118" height="118" viewBox="0 0 118 118"><defs><style>.a{fill:none;}.b{fill:#a65858;}</style></defs><path class="a" d="M0,118H118V0H0Z" transform="translate(0 0)"/><path class="b" d="M1,1H20.536V59.138H1ZM108.448,54.293a9.758,9.758,0,0,1-9.768,9.69H67.862L72.5,86.124l.147,1.55A7.264,7.264,0,0,1,70.5,92.81L65.323,97.9,33.186,65.969A9.436,9.436,0,0,1,30.3,59.138V10.69A9.758,9.758,0,0,1,40.072,1H84.028a9.7,9.7,0,0,1,8.987,5.911l14.75,34.156a9.5,9.5,0,0,1,.684,3.537Z" transform="translate(4.276 14.827)"/></svg>