<?xml version="1.0" standalone="no"?>
<!DOCTYPE svg PUBLIC "-//W3C//DTD SVG 20010904//EN"
 "http://www.w3.org/TR/2001/REC-SVG-20010904/DTD/svg10.dtd">
<svg version="1.0" xmlns="http://www.w3.org/2000/svg"
 width="512.000000pt" height="512.000000pt" viewBox="0 0 512.000000 512.000000"
 preserveAspectRatio="xMidYMid meet">
<metadata>
Created by potrace 1.15, written by Peter Selinger 2001-2017
</metadata>
<g transform="translate(0.000000,512.000000) scale(0.100000,-0.100000)"
fill="#ffffff" stroke="none">
<path d="M1555 4915 c-208 -46 -379 -202 -446 -407 -20 -61 -24 -92 -24 -193
1 -103 5 -130 27 -193 14 -40 41 -96 59 -125 20 -32 299 -319 723 -744 l691
-693 -691 -692 c-424 -426 -703 -713 -723 -745 -18 -29 -45 -85 -59 -125 -22
-63 -26 -90 -27 -193 0 -146 23 -229 95 -339 172 -263 497 -348 790 -205 l85
41 936 937 937 936 41 85 c95 195 95 405 0 600 l-41 85 -937 936 -936 937 -85
41 c-138 67 -279 86 -415 56z m216 -297 c19 -6 50 -22 70 -35 60 -40 1800
-1803 1818 -1843 22 -51 22 -310 -1 -361 -9 -22 -331 -358 -842 -880 -455
-464 -857 -872 -894 -907 -87 -82 -147 -106 -252 -100 -59 4 -87 11 -129 33
-103 56 -163 157 -163 275 0 138 -35 97 796 930 409 410 749 755 755 767 14
27 14 83 1 120 -6 16 -340 358 -754 773 -409 410 -752 761 -763 780 -72 124
-46 280 63 379 30 27 73 56 96 64 52 19 153 21 199 5z"/>
</g>
</svg>
